<svg xmlns="http://www.w3.org/2000/svg" xmlns:xlink="http://www.w3.org/1999/xlink" xmlns:lucid="lucid" width="1700" height="1960"><g transform="translate(-59.99999999999997 0)" lucid:page-tab-id="0_0"><path d="M0 0h1870.87v2581.67H0z" fill="#fff"/><path d="M365.43 20h1114.2l25.8 25.8V149h-1140z" stroke="#5e5e5e" stroke-width="3" fill="#fff"/><path d="M1479.63 21.43V45.8H1504" stroke="#5e5e5e" stroke-width="3" fill="#fff"/><use xlink:href="#a" transform="matrix(1,0,0,1,370.43307086614163,25) translate(320.4444444444445 50.593749999999986)"/><use xlink:href="#b" transform="matrix(1,0,0,1,370.43307086614163,25) translate(475.55555555555554 50.593749999999986)"/><use xlink:href="#c" transform="matrix(1,0,0,1,370.43307086614163,25) translate(499.8888888888889 50.593749999999986)"/><use xlink:href="#d" transform="matrix(1,0,0,1,370.43307086614163,25) translate(655.3333333333333 50.593749999999986)"/><use xlink:href="#e" transform="matrix(1,0,0,1,370.43307086614163,25) translate(397.38888888888897 91.48263888888886)"/><use xlink:href="#f" transform="matrix(1,0,0,1,370.43307086614163,25) translate(461.2530864197531 91.48263888888886)"/><use xlink:href="#g" transform="matrix(1,0,0,1,370.43307086614163,25) translate(542.4012345679012 91.48263888888886)"/><use xlink:href="#h" transform="matrix(1,0,0,1,370.43307086614163,25) translate(615.4259259259259 91.48263888888886)"/><path d="M365.43 186c0-3.3 2.7-6 6-6h1128c3.32 0 6 2.7 6 6v1748c0 3.3-2.68 6-6 6h-1128c-3.3 0-6-2.7-6-6z" stroke="#5e5e5e" stroke-width="3" fill-opacity="0"/><use xlink:href="#i" transform="matrix(1,0,0,1,373.43307086614163,188) translate(486.78395061728395 17.77777777777778)"/><use xlink:href="#j" transform="matrix(1,0,0,1,373.43307086614163,188) translate(557.0308641975308 17.77777777777778)"/><path d="M139.75 679.75c0 10.9-8.84 19.75-19.75 19.75-10.9 0-19.75-8.84-19.75-19.75 0-10.9 8.84-19.75 19.75-19.75 10.9 0 19.75 8.84 19.75 19.75z" stroke="#5e5e5e" stroke-width="3" fill="#fff"/><path d="M120 699.5v49.3c0 3.3 1.44 8.27 3.2 11.07L160 818m-40-63.2L80 818m0-98.75h80" stroke="#5e5e5e" stroke-width="3" fill="none"/><path d="M80 666c0-3.3 2.7-6 6-6h68c3.3 0 6 2.7 6 6v168c0 3.3-2.7 6-6 6H86c-3.3 0-6-2.7-6-6z" fill="none"/><use xlink:href="#k" transform="matrix(1,0,0,1,-2.842170943040401e-14,818) translate(96.60493827160494 17.77777777777778)"/><path d="M1619.75 1049.75c0 10.9-8.84 19.75-19.75 19.75-10.9 0-19.75-8.84-19.75-19.75 0-10.9 8.84-19.75 19.75-19.75 10.9 0 19.75 8.84 19.75 19.75z" stroke="#5e5e5e" stroke-width="3" fill="#fff"/><path d="M1600 1069.5v49.3c0 3.3 1.44 8.27 3.2 11.07L1640 1188m-40-63.2l-40 63.2m0-98.75h80" stroke="#5e5e5e" stroke-width="3" fill="none"/><path d="M1560 1036c0-3.3 2.7-6 6-6h68c3.3 0 6 2.7 6 6v168c0 3.3-2.7 6-6 6h-68c-3.3 0-6-2.7-6-6z" fill="none"/><use xlink:href="#l" transform="matrix(1,0,0,1,1480,1188) translate(88.58024691358025 17.77777777777778)"/><path d="M700 1540c0 33.14-40.3 60-90 60s-90-26.86-90-60 40.3-60 90-60 90 26.86 90 60z" stroke="#5e5e5e" stroke-width="3" fill="#fff"/><use xlink:href="#m" transform="matrix(1,0,0,1,520,1480) translate(27.429999999999986 63.15)"/><use xlink:href="#n" transform="matrix(1,0,0,1,520,1480) translate(98.63 63.15)"/><path d="M1440 1210c0 33.14-40.3 60-90 60s-90-26.86-90-60 40.3-60 90-60 90 26.86 90 60z" stroke="#5e5e5e" stroke-width="3" fill="#fff"/><use xlink:href="#o" transform="matrix(1,0,0,1,1260,1150) translate(39.529999999999994 63.15)"/><use xlink:href="#p" transform="matrix(1,0,0,1,1260,1150) translate(75.47999999999999 63.15)"/><path d="M580 1360c0 33.14-40.3 60-90 60s-90-26.86-90-60 40.3-60 90-60 90 26.86 90 60z" stroke="#5e5e5e" stroke-width="3" fill="#fff"/><use xlink:href="#q" transform="matrix(1,0,0,1,400,1300) translate(12.430000000000001 63.15)"/><use xlink:href="#r" transform="matrix(1,0,0,1,400,1300) translate(45.38 63.15)"/><use xlink:href="#s" transform="matrix(1,0,0,1,400,1300) translate(65.38 63.15)"/><path d="M900 290c0 27.6-40.3 50-90 50s-90-22.4-90-50 40.3-50 90-50 90 22.4 90 50z" stroke="#5e5e5e" stroke-width="3" fill="#fff"/><use xlink:href="#t" transform="matrix(1,0,0,1,720,240) translate(33.754999999999995 55.025)"/><use xlink:href="#u" transform="matrix(1,0,0,1,720,240) translate(102.305 55.025)"/><path d="M580 265.2c0 33.15-40.3 60-90 60s-90-26.85-90-60c0-33.13 40.3-60 90-60s90 26.87 90 60z" stroke="#5e5e5e" stroke-width="3" fill="#fff"/><use xlink:href="#v" transform="matrix(1,0,0,1,400,205.2086614173228) translate(65.00500000000001 63.15)"/><use xlink:href="#w" transform="matrix(1,0,0,1,400,205.2086614173228) translate(100.005 63.15)"/><path d="M1719.75 702c0 10.9-8.84 19.75-19.75 19.75-10.9 0-19.75-8.84-19.75-19.75 0-10.9 8.84-19.75 19.75-19.75 10.9 0 19.75 8.84 19.75 19.75z" stroke="#5e5e5e" stroke-width="3" fill="#fff"/><path d="M1700 721.75v49.3c0 3.3 1.44 8.27 3.2 11.07l36.8 58.13m-40-63.2l-40 63.2m0-98.75h80" stroke="#5e5e5e" stroke-width="3" fill="none"/><path d="M1660 688.25c0-3.3 2.7-6 6-6h68c3.3 0 6 2.7 6 6v168c0 3.3-2.7 6-6 6h-68c-3.3 0-6-2.7-6-6z" fill="none"/><use xlink:href="#x" transform="matrix(1,0,0,1,1580,840.25) translate(94.69135802469137 17.77777777777778)"/><path d="M580 1200c0 33.14-40.3 60-90 60s-90-26.86-90-60 40.3-60 90-60 90 26.86 90 60z" stroke="#5e5e5e" stroke-width="3" fill="#fff"/><use xlink:href="#y" transform="matrix(1,0,0,1,400,1140) translate(37.05499999999999 63.15)"/><use xlink:href="#z" transform="matrix(1,0,0,1,400,1140) translate(93.005 63.15)"/><path d="M397.63 265.7L300 320 160.33 718.17" stroke="#5e5e5e" stroke-width="2" fill="none"/><path d="M398.5 265.2v.67l.03.47-.44.24-.98-1.75 1.4-.78M161.28 718.48l-1.33 3.8-1.9-.66.32-.87H160v-2.72" fill="#5e5e5e"/><path d="M398.06 1199.1L160.44 720" stroke="#5e5e5e" stroke-width="2" fill="none"/><path d="M398.5 1199.98v.68l.08 1.75-1.43-2.87 1.38-.7M161.35 719.6l-1.35.66v-2.5h-1.8l-.43-.88 1.8-.9" fill="#5e5e5e"/><path d="M517.54 1539.7L320 1480 160.2 720.1" stroke="#5e5e5e" stroke-width="2" fill="none"/><path d="M518.53 1538.96l-.03 1.02v.68l.02.4-1.3-.4.6-1.9M161.2 719.92l-1.2.25v-2.42h-1.3l-.3-1.36 1.96-.42" fill="#5e5e5e"/><path d="M398.15 1359.06l-237.8-639" stroke="#5e5e5e" stroke-width="2" fill="none"/><path d="M398.5 1359.98v.68l.1 2.33.02.16-1.4-3.77 1.3-.5M161.3 719.73l-1.3.48v-2.45h-1.58l-.4-1.1 1.87-.7M716.92 288.66l-.4 1.96-8.96-1.83.4-1.97m-9.36.14l-1.32-.27h1.38m-96.06-21.34h-2.2l.07-.43m-8.95-1.82l-.4 1.97-8.96-1.83.4-1.96" fill="#5e5e5e"/><path d="M582.58 261.3l-.4 1.95-.75-.16-.04-.88-.12-1.2M718.5 290l-20.5 7.1-.65-1.9 17.3-5.98-12.93-11.7v-1.3l.7-.77" fill="#5e5e5e"/><use xlink:href="#A" transform="matrix(1,0,0,1,598.1617526256932,265.3643243058911) translate(0 14.222222222222223)"/><path d="M581.5 1200" stroke="#5e5e5e" stroke-width="2" fill="none"/><path fill="#5e5e5e"/><path fill="#5e5e5e"/><path d="M800 1850c0 27.6-40.3 50-90 50s-90-22.4-90-50 40.3-50 90-50 90 22.4 90 50z" stroke="#5e5e5e" stroke-width="3" fill="#fff"/><use xlink:href="#B" transform="matrix(1,0,0,1,620,1800) translate(28.279999999999998 42.525)"/><use xlink:href="#C" transform="matrix(1,0,0,1,620,1800) translate(78.17999999999999 42.525)"/><use xlink:href="#z" transform="matrix(1,0,0,1,620,1800) translate(65.03 64.125)"/><path d="M676 1800.47l-2 .2-1-9.8 2-.2m-.98-9.8l-2 .2-1.95-19.6 2-.2m-1-9.8l-1.98.2-1.97-19.6 2-.2m-1-9.78l-1.98.2-1.96-19.6 1.98-.2m-.98-9.8l-2 .2-.27-2.8h2m-2.67-26.8l-2 .2-1.95-19.6 2-.2m-.98-9.8l-2 .2-1.96-19.6 2-.2m-1-9.78l-1.98.2-.98-9.8 2-.2" fill="#5e5e5e"/><path d="M655.4 1594.74l-2 .2-.07-.75.2-.07 1.74-.7M684.3 1782.7l-9.13 19.68-12.84-17.48 1.6-1.2 10.85 14.77 7.7-16.6" fill="#5e5e5e"/><use xlink:href="#A" transform="matrix(1,0,0,1,611.0898233978724,1668.7725301898006) translate(0 14.222222222222223)"/><path d="M1440 1040c0 33.14-40.3 60-90 60s-90-26.86-90-60 40.3-60 90-60 90 26.86 90 60z" stroke="#5e5e5e" stroke-width="3" fill="#fff"/><use xlink:href="#o" transform="matrix(1,0,0,1,1260,980) translate(53.07999999999999 63.15)"/><use xlink:href="#D" transform="matrix(1,0,0,1,1260,980) translate(89.03 63.15)"/><path d="M580 740c0 33.14-40.3 60-90 60s-90-26.86-90-60 40.3-60 90-60 90 26.86 90 60z" stroke="#5e5e5e" stroke-width="3" fill="#fff"/><use xlink:href="#E" transform="matrix(1,0,0,1,400,680) translate(23.104999999999997 51.9)"/><use xlink:href="#F" transform="matrix(1,0,0,1,400,680) translate(82.00500000000001 51.9)"/><use xlink:href="#p" transform="matrix(1,0,0,1,400,680) translate(57.504999999999995 73.5)"/><path d="M580 590c0 33.14-40.3 60-90 60s-90-26.86-90-60 40.3-60 90-60 90 26.86 90 60z" stroke="#5e5e5e" stroke-width="3" fill="#fff"/><use xlink:href="#G" transform="matrix(1,0,0,1,400,530) translate(17.57999999999999 63.15)"/><use xlink:href="#H" transform="matrix(1,0,0,1,400,530) translate(85.53 63.15)"/><path d="M900 550c0 27.6-40.3 50-90 50s-90-22.4-90-50 40.3-50 90-50 90 22.4 90 50z" stroke="#5e5e5e" stroke-width="3" fill="#fff"/><use xlink:href="#t" transform="matrix(1,0,0,1,720,500) translate(26.229999999999997 55.025)"/><use xlink:href="#I" transform="matrix(1,0,0,1,720,500) translate(94.78 55.025)"/><path d="M591.7 588.07l-8.96 2.6-.56-1.9 8.95-2.62m9.52-.7l-.56-1.92 9.8-2.86h7.13m82.1-23.97l-9.03 2.63h-7.13l15.6-4.55m18.46-3.3l-8.95 2.6-.56-1.92 8.95-2.6" fill="#5e5e5e"/><path d="M582.76 590.67l-1.3.38.04-1.03v-.68l-.02-.38.72-.2M718.5 550l-14.83 15.83-1.46-1.37 12.53-13.36-17.74-4.53.48-1.94" fill="#5e5e5e"/><use xlink:href="#A" transform="matrix(1,0,0,1,598.2222222163682,559.3333333333334) translate(0 14.222222222222223)"/><path d="M397.62 590.48L160.88 718.64" stroke="#5e5e5e" stroke-width="2" fill="none"/><path d="M398.5 589.98v.68l.02.46-.45.25-.95-1.76 1.4-.75M157.84 721.43l-.37-.68h1.62m2.28-1.24l-1.38.76v-2.28l.43-.23" fill="#5e5e5e"/><path d="M640 427.6c0 33.14-40.3 60-90 60s-90-26.86-90-60c0-33.13 40.3-60 90-60s90 26.87 90 60z" stroke="#5e5e5e" stroke-width="3" fill="#fff"/><use xlink:href="#J" transform="matrix(1,0,0,1,460,367.6043307086614) translate(42.605 63.15)"/><use xlink:href="#K" transform="matrix(1,0,0,1,460,367.6043307086614) translate(85.505 63.15)"/><path d="M457.53 427.83L320 460 160.53 718.27" stroke="#5e5e5e" stroke-width="2" fill="none"/><path d="M458.5 427.6v.66l.02.37-.8.18-.45-1.94 1.26-.3M161.4 718.77l-2.13 3.43-1.7-1.05.25-.4H160v-2.84m-.33-.15l.02-.03.04.03M1659.34 738.75l-.6 1.9-1016.58-311.8.6-1.9" fill="#5e5e5e"/><path d="M642.77 426.95l-.58 1.9-.73-.2.03-1.03v-.68l-.02-.4M1663.16 739.92l-3.16.08v1.05l-1.27-.4.58-1.9" fill="#5e5e5e"/><path d="M580 890c0 33.14-40.3 60-90 60s-90-26.86-90-60 40.3-60 90-60 90 26.86 90 60z" stroke="#5e5e5e" stroke-width="3" fill="#fff"/><use xlink:href="#E" transform="matrix(1,0,0,1,400,830) translate(28.57999999999999 51.9)"/><use xlink:href="#L" transform="matrix(1,0,0,1,400,830) translate(87.48 51.9)"/><use xlink:href="#p" transform="matrix(1,0,0,1,400,830) translate(57.504999999999995 73.5)"/><path d="M580 1040c0 33.14-40.3 60-90 60s-90-26.86-90-60 40.3-60 90-60 90 26.86 90 60z" stroke="#5e5e5e" stroke-width="3" fill="#fff"/><use xlink:href="#E" transform="matrix(1,0,0,1,400,980) translate(14.679999999999987 63.15)"/><use xlink:href="#M" transform="matrix(1,0,0,1,400,980) translate(73.58 63.15)"/><use xlink:href="#N" transform="matrix(1,0,0,1,400,980) translate(126.43 63.15)"/><path d="M1240 661.42c0 33.13-40.3 60-90 60s-90-26.87-90-60c0-33.14 40.3-60 90-60s90 26.86 90 60z" stroke="#5e5e5e" stroke-width="3" fill="#fff"/><use xlink:href="#E" transform="matrix(1,0,0,1,1060,601.4173228346456) translate(29.554999999999986 51.9)"/><use xlink:href="#O" transform="matrix(1,0,0,1,1060,601.4173228346456) translate(88.455 51.9)"/><use xlink:href="#P" transform="matrix(1,0,0,1,1060,601.4173228346456) translate(17.554999999999986 73.5)"/><use xlink:href="#p" transform="matrix(1,0,0,1,1060,601.4173228346456) translate(97.455 73.5)"/><path d="M940 670c0 27.6-40.3 50-90 50s-90-22.4-90-50 40.3-50 90-50 90 22.4 90 50z" stroke="#5e5e5e" stroke-width="3" fill="#fff"/><use xlink:href="#y" transform="matrix(1,0,0,1,760,620) translate(47.029999999999994 55.025)"/><use xlink:href="#Q" transform="matrix(1,0,0,1,760,620) translate(102.98 55.025)"/><path d="M581.5 740" stroke="#5e5e5e" stroke-width="2" fill="none"/><path fill="#5e5e5e"/><path fill="#5e5e5e"/><path d="M592.5 736.73l-9.7 3.83-.74-1.86 9.7-3.83m29.8-9.63l-19.4 7.66-.72-1.86 19.37-7.66m10.44-1.97l-.74-1.85 9.8-3.88h5.45m63-24.9l-9.06 3.56h-5.45L708 688.9m29.8-9.64l-19.37 7.66-.74-1.86 19.37-7.66m20.1-5.8l-9.68 3.83-.75-1.86 9.7-3.83" fill="#5e5e5e"/><path d="M582.82 740.55l-1.35.54.03-1.08v-.68l-.02-.4.6-.25M758.5 670l-13.3 17.13-1.58-1.22 11.23-14.46-18.1-2.87.33-1.97" fill="#5e5e5e"/><use xlink:href="#A" transform="matrix(1,0,0,1,618.2222222163682,694.3333333333334) translate(0 14.222222222222223)"/><path d="M950.55 670.34l-7.16.52-.16-2 7.3-.53" fill="#5e5e5e"/><path fill="#5e5e5e"/><path d="M961.82 677.85l-.9 1.8-7.3-3.63h4.5m-7.57-9.87l-5.13 3.56 5.13 2.56v2.23l-9.05-4.5 9.05-6.3" fill="#5e5e5e"/><use xlink:href="#R" transform="matrix(1,0,0,1,950.5459093967528,654.6904111366505) translate(0 14.222222222222223)"/><path d="M397.5 739.9L161 719.2" stroke="#5e5e5e" stroke-width="2" fill="none"/><path d="M398.53 739l-.03.98v.68l.02.35-1.13-.1.17-2M161.1 718.2l-.17 2-.93-.08v-2" fill="#5e5e5e"/><path d="M397.7 889.42L160.8 719.7" stroke="#5e5e5e" stroke-width="2" fill="none"/><path d="M398.53 888.8l-.03 1.18v.68l.03.6-1.45-1.04 1.17-1.63M161.42 718.9l-1.17 1.63-.25-.18v-2.46m-2.7-.15l.84-1.2 1.67 1.2" fill="#5e5e5e"/><path d="M397.9 1039.2L160.6 719.92" stroke="#5e5e5e" stroke-width="2" fill="none"/><path d="M398.5 1039.98v.68l.05 1.1-1.46-2 1.44-1.06M161.4 719.35l-1.4 1.05v-2.65h-2.26l-.33-.44 1.6-1.2" fill="#5e5e5e"/><path d="M1120 1250c0 27.6-40.3 50-90 50s-90-22.4-90-50 40.3-50 90-50 90 22.4 90 50z" stroke="#5e5e5e" stroke-width="3" fill="#fff"/><use xlink:href="#S" transform="matrix(1,0,0,1,940,1200) translate(27.054999999999986 55.025)"/><use xlink:href="#T" transform="matrix(1,0,0,1,940,1200) translate(90.005 55.025)"/><path d="M936.84 1248.76l-.28 1.98-9.84-1.38.28-1.98m-9.84-1.38l-.28 1.98-19.68-2.75.28-1.98m-9.84-1.38l-.28 1.98-19.67-2.76.26-2m-9.84-1.37l-.27 1.98-19.68-2.74.28-1.98m-9.84-1.38l-.27 1.98-19.68-2.76.28-1.98m-9.84-1.37l-.3 1.98-19.67-2.76.28-2m-9.83-1.37l-.27 1.98-5.06-.7v-2.02m-112.74-15.8l-.27 2-19.68-2.76.27-1.98m-9.83-1.38l-.3 1.98-19.67-2.75.28-2m-9.83-1.37l-.28 1.98-9.85-1.37.28-1.98" fill="#5e5e5e"/><path d="M582.65 1199.15l-.27 1.98-.9-.12.02-.98v-.68l-.02-.35M938.5 1250l-20.02 8.35-.77-1.85 16.9-7.04-14.3-11.42 1.24-1.56" fill="#5e5e5e"/><use xlink:href="#A" transform="matrix(1,0,0,1,660.6876907908947,1207.6758343135134) translate(0 14.222222222222223)"/><path d="M592.6 1357.63l-9.85 3.03-.6-1.9 9.85-3.04m30.12-7.2l-19.7 6.08-.58-1.92 19.7-6.06m30.1-7.2l-19.68 6.08-.6-1.9 19.7-6.08m30.1-7.18l-19.68 6.06-.58-1.9 19.68-6.08m30.1-7.18l-19.67 6.06-.58-1.9 19.7-6.07m10.42-1.12l-.6-1.9 2.05-.63h6.78m70.5-21.72l-1.27.38h-6.78l7.46-2.3m30.12-7.18l-19.7 6.06-.58-1.9 19.7-6.06m30.1-7.2l-19.68 6.08-.6-1.92 19.7-6.06m30.1-7.2l-19.68 6.08-.6-1.9 19.7-6.08m30.1-7.18l-19.67 6.06-.6-1.9 19.68-6.08m20.28-4.15l-9.85 3.02-.57-1.9 9.84-3.04" fill="#5e5e5e"/><path d="M582.77 1360.65l-1.3.4.03-1.03v-.68l-.02-.38.7-.22M938.5 1250l-14.6 16.05-1.47-1.35 12.32-13.54-17.8-4.27.46-1.95" fill="#5e5e5e"/><use xlink:href="#A" transform="matrix(1,0,0,1,708.2222222163682,1294.3333333333333) translate(0 14.222222222222223)"/><path d="M1300 1430c0 38.66-49.25 70-110 70s-110-31.34-110-70 49.25-70 110-70 110 31.34 110 70z" stroke="#5e5e5e" stroke-width="3" fill="#fff"/><use xlink:href="#U" transform="matrix(1,0,0,1,1080,1360) translate(32.05500000000001 53.775)"/><use xlink:href="#V" transform="matrix(1,0,0,1,1080,1360) translate(84.055 53.775)"/><use xlink:href="#W" transform="matrix(1,0,0,1,1080,1360) translate(147.95499999999998 53.775)"/><use xlink:href="#X" transform="matrix(1,0,0,1,1080,1360) translate(36.054999999999986 75.375)"/><use xlink:href="#W" transform="matrix(1,0,0,1,1080,1360) translate(143.95499999999998 75.375)"/><use xlink:href="#Y" transform="matrix(1,0,0,1,1080,1360) translate(80.03 96.97500000000001)"/><path d="M580 1770c0 27.6-40.3 50-90 50s-90-22.4-90-50 40.3-50 90-50 90 22.4 90 50z" stroke="#5e5e5e" stroke-width="3" fill="#fff"/><use xlink:href="#B" transform="matrix(1,0,0,1,400,1720) translate(32.55500000000001 42.525)"/><use xlink:href="#Z" transform="matrix(1,0,0,1,400,1720) translate(82.455 42.525)"/><use xlink:href="#aa" transform="matrix(1,0,0,1,400,1720) translate(64.505 64.125)"/><path d="M520.28 1711.2l-4.1 8.03-1.8-.9 4.12-8.04m14.1-23.2l-8.22 16.07-1.78-.9 8.2-16.08m5.9-7.13l-1.78-.9.47-.93h2.24m19.58-38.32l-8.2 16.06-1.8-.9 8.22-16.07m14.1-23.17l-8.2 16.06-1.8-.92 8.22-16.06m10-15.15l-4.12 8.03-1.78-.9 4.1-8.04" fill="#5e5e5e"/><path d="M578.3 1597.67l-.57 1.12-1.78-.92.37-.7M516.24 1716.9l15.48-9.8 1.07 1.7-18.34 11.6-1.34-21.66 2-.12" fill="#5e5e5e"/><use xlink:href="#A" transform="matrix(1,0,0,1,490.18629781414796,1655.9085668193554) translate(0 14.222222222222223)"/><path d="M1242.48 661.6l416.54 78.22" stroke="#5e5e5e" stroke-width="2" fill="none"/><path d="M1242.7 660.62l-.38 1.97-.85-.17.03-1v-.67l-.02-.36M1663.13 739.57l-.08.43H1660v1.02l-1.2-.23.38-1.97" fill="#5e5e5e"/><path d="M582.5 740.03L1380 760l279-19.93" stroke="#5e5e5e" stroke-width="2" fill="none"/><path d="M582.55 739.03l-.05 2-1.03-.03.03-.98v-.68l-.02-.34M1663 740h-3v1l-.95.07-.14-2 4.02-.28" fill="#5e5e5e"/><path d="M582.5 889.87L1420 780l239-39.84" stroke="#5e5e5e" stroke-width="2" fill="none"/><path d="M582.65 890.86l-1.18.15.03-.98v-.68l-.02-.35.9-.12M1663.04 740H1660v1l-.85.16-.33-1.98 3.97-.66" fill="#5e5e5e"/><path d="M582.46 1039.73L1440 800l219.04-59.74" stroke="#5e5e5e" stroke-width="2" fill="none"/><path d="M582.76 1040.7l-1.3.35.04-1.03v-.68l-.02-.37.74-.2M1663.1 740h-3.1v1.04l-.73.2-.52-1.93 3.88-1.05M1097.7 1387.47l-1.58 1.23-5.52-7.15 1.58-1.23m-5.53-7.15l-1.58 1.23-11.05-14.3 1.58-1.22m-22.1-28.6l-1.58 1.22-11.05-14.3 1.58-1.22m-5.52-7.15l-1.58 1.22-5.53-7.15 1.58-1.22" fill="#5e5e5e"/><path d="M1029.98 1301.5h1.28l.16.2-1.58 1.22-1.13-1.46M1098.02 1389.52l-20.15-8.02.74-1.86 17.02 6.78-2.26-18.17 1.98-.25" fill="#5e5e5e"/><g><use xlink:href="#ab" transform="matrix(1,0,0,1,1012.2342529424391,1334.8454073448163) translate(0 14.222222222222223)"/></g><path d="M1659.6 741.36l-179.1 99.5-897.63 519.5-1-1.73 897.64-519.5 179.14-99.52" fill="#5e5e5e"/><path d="M582.9 1360.35l-1.43.82.03-1.15v-.68l-.03-.48.42-.24M1663.1 739.42l-1.04.58H1660v1.14l-.4.23-.98-1.75 3.52-1.95" fill="#5e5e5e"/><path d="M1659.44 741.3l-199.06 79.62-877.57 379.6-.78-1.83 877.6-379.62 199.08-79.64" fill="#5e5e5e"/><path d="M582.84 1200.5l-1.37.6.03-1.08v-.68l-.02-.42.56-.25M1663.16 739.8l-.47.2h-2.7v1.08l-.58.23-.74-1.85 3.73-1.5" fill="#5e5e5e"/><path d="M1442.43 1040.37l117.97 47" stroke="#5e5e5e" stroke-width="2" fill="none"/><path d="M1442.82 1039.45l-.74 1.86-.6-.24.02-1.04v-.68l-.02-.43" fill="#5e5e5e"/><path d="M1560.38 1087.37l3.74 1.5M1442.2 1209.3l117.84-117.84" stroke="#5e5e5e" stroke-width="2" fill="none"/><path d="M1442.93 1209.98l-1.47 1.47.04-1.43v-.68l-.04-.72.06-.05" fill="#5e5e5e"/><path d="M1560.02 1091.48l2.85-2.85" stroke="#5e5e5e" stroke-width="2" fill="none"/><path d="M1360 1770c0 27.6-40.3 50-90 50s-90-22.4-90-50 40.3-50 90-50 90 22.4 90 50z" stroke="#5e5e5e" stroke-width="3" fill="#fff"/><g><use xlink:href="#ac" transform="matrix(1,0,0,1,1180,1720) translate(31.029999999999994 55.025)"/><use xlink:href="#ad" transform="matrix(1,0,0,1,1180,1720) translate(85.98 55.025)"/></g><path d="M1020 1690c0 27.6-40.3 50-90 50s-90-22.4-90-50 40.3-50 90-50 90 22.4 90 50z" stroke="#5e5e5e" stroke-width="3" fill="#fff"/><g><use xlink:href="#ae" transform="matrix(1,0,0,1,840,1640) translate(26.104999999999997 55.025)"/><use xlink:href="#af" transform="matrix(1,0,0,1,840,1640) translate(78.005 55.025)"/></g><path d="M712.34 1537.88l-9.6 2.8-.56-1.92 9.6-2.8m29.35-6.48l-19.2 5.6-.56-1.92 19.2-5.6m29.35-6.48l-19.2 5.6-.55-1.92 19.2-5.6m29.34-6.48l-19.18 5.6-.56-1.92 19.2-5.6m29.34-6.48l-19.2 5.6-.55-1.92 19.2-5.6m29.35-6.48l-19.2 5.6-.56-1.92 19.2-5.6m29.35-6.5l-19.2 5.62-.57-1.92 15.68-4.58h3.83m86.63-24.3l-10.2 2.97h-7.13l16.77-4.9m29.36-6.48l-19.2 5.6-.56-1.92 19.2-5.6m29.35-6.48l-19.2 5.6-.56-1.92 19.2-5.6m29.34-6.48l-19.2 5.6-.55-1.92 19.18-5.6m19.75-3.68l-9.6 2.8-.55-1.92 9.6-2.8" fill="#5e5e5e"/><path d="M1078.5 1430l-14.83 15.83-1.46-1.37 12.53-13.36-17.74-4.53.48-1.94M702.76 1540.67l-1.3.38.04-1.03v-.68l-.02-.38.72-.2" fill="#5e5e5e"/><g><use xlink:href="#R" transform="matrix(1,0,0,1,866.8949562534376,1465.2468309733824) translate(0 14.222222222222223)"/></g><path d="M848.52 1663.57l-1.03 1.7-8.7-5.25 1.02-1.7m-8.7-5.27l-1.03 1.7-17.4-10.5 1.02-1.72m-8.7-5.26l-1.03 1.7-17.4-10.5.3-.5h2.73m-36.8-22.26l-.57.93h-1.78l-16.1-9.73 1.04-1.7m-8.7-5.27l-1.04 1.7-17.4-10.5 1.04-1.72m-8.7-5.25l-1.04 1.7-8.7-5.25 1.03-1.7" fill="#5e5e5e"/><path d="M691.94 1568.9l-1.04 1.7-1-.6 1.03-1.24.24-.32M849.56 1665.37l-21.7-.2.03-2 18.3.16-8.66-16.12 1.76-.94" fill="#5e5e5e"/><g><use xlink:href="#A" transform="matrix(1,0,0,1,718.2744482717574,1606.6314555155961) translate(0 14.222222222222223)"/></g><path d="M1182.9 1751.68l-.5 1.94-9.23-2.37.5-1.93m-9.24-2.37l-.5 1.94-18.47-4.74.5-1.94m-92.35-23.65l-.5 1.94-18.46-4.72.5-1.94m-9.24-2.36l-.5 1.94-9.23-2.37.5-1.94" fill="#5e5e5e"/><path d="M1036.04 1705.5l-17.58 5.1 12.96 12.94-1.42 1.42-15.35-15.33 20.83-6.06M1184.2 1752.02l-.58.88-.52.9-.72-.2.5-1.92" fill="#5e5e5e"/><g><use xlink:href="#R" transform="matrix(1,0,0,1,1044.8912514436147,1720.5980949162351) translate(0 14.222222222222223)"/></g><path d="M813.2 1849.1l-9.74 1.6-.33-1.98 9.74-1.6m29.52-2.8l-19.48 3.2-.32-1.98 19.47-3.18m29.52-2.8l-19.48 3.18-.32-1.97 19.47-3.18m29.52-2.8l-19.47 3.17-.33-1.97 19.47-3.18m29.52-2.8l-19.47 3.18-.33-1.97 19.47-3.18m146.33-21.88l-19.47 3.18-.32-1.97 19.48-3.18m29.52-2.8l-19.47 3.18-.32-1.97 19.48-3.17m29.52-2.8l-19.46 3.18-.33-1.96 19.48-3.18m29.52-2.8l-19.46 3.18-.33-1.97 19.48-3.18m19.8-1.22l-9.74 1.6-.32-1.98 9.73-1.6" fill="#5e5e5e"/><path d="M1183.95 1787.6l.56.85-1.45.24-.33-2 .62-.1M819.43 1837.63l-14.05 11.74 17.05 6.65-.72 1.87-20.2-7.9 16.65-13.9" fill="#5e5e5e"/><g><use xlink:href="#R" transform="matrix(1,0,0,1,938.4517862062394,1808.1002778131995) translate(0 14.222222222222223)"/></g><defs><path fill="#333" d="M240 0l2-218c-23 76-54 145-80 218h-23L58-218 59 0H30v-248h44l77 211c21-75 51-140 76-211h43V0h-30" id="ag"/><path fill="#333" d="M24-231v-30h32v30H24zM24 0v-190h32V0H24" id="ah"/><path fill="#333" d="M85-194c31 0 48 13 60 33l-1-100h32l1 261h-30c-2-10 0-23-3-31C134-8 116 4 85 4 32 4 16-35 15-94c0-66 23-100 70-100zm9 24c-40 0-46 34-46 75 0 40 6 74 45 74 42 0 51-32 51-76 0-42-9-74-50-73" id="ai"/><path fill="#333" d="M59-47c-2 24 18 29 38 22v24C64 9 27 4 27-40v-127H5v-23h24l9-43h21v43h35v23H59v120" id="aj"/><path fill="#333" d="M100-194c63 0 86 42 84 106H49c0 40 14 67 53 68 26 1 43-12 49-29l28 8c-11 28-37 45-77 45C44 4 14-33 15-96c1-61 26-98 85-98zm52 81c6-60-76-77-97-28-3 7-6 17-6 28h103" id="ak"/><path fill="#333" d="M114-163C36-179 61-72 57 0H25l-1-190h30c1 12-1 29 2 39 6-27 23-49 58-41v29" id="al"/><path fill="#333" d="M210-169c-67 3-38 105-44 169h-31v-121c0-29-5-50-35-48C34-165 62-65 56 0H25l-1-190h30c1 10-1 24 2 32 10-44 99-50 107 0 11-21 27-35 58-36 85-2 47 119 55 194h-31v-121c0-29-5-49-35-48" id="am"/><g id="a"><use transform="matrix(0.11111111111111108,0,0,0.11111111111111108,0,0)" xlink:href="#ag"/><use transform="matrix(0.11111111111111108,0,0,0.11111111111111108,33.222222222222214,0)" xlink:href="#ah"/><use transform="matrix(0.11111111111111108,0,0,0.11111111111111108,41.999999999999986,0)" xlink:href="#ai"/><use transform="matrix(0.11111111111111108,0,0,0.11111111111111108,64.2222222222222,0)" xlink:href="#aj"/><use transform="matrix(0.11111111111111108,0,0,0.11111111111111108,75.33333333333331,0)" xlink:href="#ak"/><use transform="matrix(0.11111111111111108,0,0,0.11111111111111108,97.55555555555553,0)" xlink:href="#al"/><use transform="matrix(0.11111111111111108,0,0,0.11111111111111108,110.77777777777774,0)" xlink:href="#am"/></g><path fill="#333" d="M16-82v-28h88v28H16" id="an"/><use transform="matrix(0.11111111111111108,0,0,0.11111111111111108,0,0)" xlink:href="#an" id="b"/><path fill="#333" d="M160-131c35 5 61 23 61 61C221 17 115-2 30 0v-248c76 3 177-17 177 60 0 33-19 50-47 57zm-97-11c50-1 110 9 110-42 0-47-63-36-110-37v79zm0 115c55-2 124 14 124-45 0-56-70-42-124-44v89" id="ao"/><path fill="#333" d="M141-36C126-15 110 5 73 4 37 3 15-17 15-53c-1-64 63-63 125-63 3-35-9-54-41-54-24 1-41 7-42 31l-33-3c5-37 33-52 76-52 45 0 72 20 72 64v82c-1 20 7 32 28 27v20c-31 9-61-2-59-35zM48-53c0 20 12 33 32 33 41-3 63-29 60-74-43 2-92-5-92 41" id="ap"/><path fill="#333" d="M117-194c89-4 53 116 60 194h-32v-121c0-31-8-49-39-48C34-167 62-67 57 0H25l-1-190h30c1 10-1 24 2 32 11-22 29-35 61-36" id="aq"/><path fill="#333" d="M143 0L79-87 56-68V0H24v-261h32v163l83-92h37l-77 82L181 0h-38" id="ar"/><path fill="#333" d="M177-190C167-65 218 103 67 71c-23-6-38-20-44-43l32-5c15 47 100 32 89-28v-30C133-14 115 1 83 1 29 1 15-40 15-95c0-56 16-97 71-98 29-1 48 16 59 35 1-10 0-23 2-32h30zM94-22c36 0 50-32 50-73 0-42-14-75-50-75-39 0-46 34-46 75s6 73 46 73" id="as"/><g id="c"><use transform="matrix(0.11111111111111108,0,0,0.11111111111111108,0,0)" xlink:href="#ao"/><use transform="matrix(0.11111111111111108,0,0,0.11111111111111108,26.666666666666657,0)" xlink:href="#ap"/><use transform="matrix(0.11111111111111108,0,0,0.11111111111111108,48.88888888888887,0)" xlink:href="#aq"/><use transform="matrix(0.11111111111111108,0,0,0.11111111111111108,71.11111111111109,0)" xlink:href="#ar"/><use transform="matrix(0.11111111111111108,0,0,0.11111111111111108,91.11111111111109,0)" xlink:href="#ah"/><use transform="matrix(0.11111111111111108,0,0,0.11111111111111108,99.88888888888886,0)" xlink:href="#aq"/><use transform="matrix(0.11111111111111108,0,0,0.11111111111111108,122.11111111111107,0)" xlink:href="#as"/></g><path fill="#333" d="M185-189c-5-48-123-54-124 2 14 75 158 14 163 119 3 78-121 87-175 55-17-10-28-26-33-46l33-7c5 56 141 63 141-1 0-78-155-14-162-118-5-82 145-84 179-34 5 7 8 16 11 25" id="at"/><path fill="#333" d="M179-190L93 31C79 59 56 82 12 73V49c39 6 53-20 64-50L1-190h34L92-34l54-156h33" id="au"/><path fill="#333" d="M135-143c-3-34-86-38-87 0 15 53 115 12 119 90S17 21 10-45l28-5c4 36 97 45 98 0-10-56-113-15-118-90-4-57 82-63 122-42 12 7 21 19 24 35" id="av"/><g id="d"><use transform="matrix(0.11111111111111108,0,0,0.11111111111111108,0,0)" xlink:href="#at"/><use transform="matrix(0.11111111111111108,0,0,0.11111111111111108,26.666666666666657,0)" xlink:href="#au"/><use transform="matrix(0.11111111111111108,0,0,0.11111111111111108,46.66666666666665,0)" xlink:href="#av"/><use transform="matrix(0.11111111111111108,0,0,0.11111111111111108,66.66666666666664,0)" xlink:href="#aj"/><use transform="matrix(0.11111111111111108,0,0,0.11111111111111108,77.77777777777774,0)" xlink:href="#ak"/><use transform="matrix(0.11111111111111108,0,0,0.11111111111111108,99.99999999999996,0)" xlink:href="#am"/></g><path fill="#333" d="M232-93c-1 65-40 97-104 97C67 4 28-28 28-90v-158h33c8 89-33 224 67 224 102 0 64-133 71-224h33v155" id="aw"/><g id="e"><use transform="matrix(0.0864197530864197,0,0,0.0864197530864197,0,0)" xlink:href="#aw"/><use transform="matrix(0.0864197530864197,0,0,0.0864197530864197,22.382716049382704,0)" xlink:href="#av"/><use transform="matrix(0.0864197530864197,0,0,0.0864197530864197,37.93827160493825,0)" xlink:href="#ak"/></g><path fill="#333" d="M212-179c-10-28-35-45-73-45-59 0-87 40-87 99 0 60 29 101 89 101 43 0 62-24 78-52l27 14C228-24 195 4 139 4 59 4 22-46 18-125c-6-104 99-153 187-111 19 9 31 26 39 46" id="ax"/><g id="f"><use transform="matrix(0.0864197530864197,0,0,0.0864197530864197,0,0)" xlink:href="#ax"/><use transform="matrix(0.0864197530864197,0,0,0.0864197530864197,22.382716049382704,0)" xlink:href="#ap"/><use transform="matrix(0.0864197530864197,0,0,0.0864197530864197,39.66666666666664,0)" xlink:href="#av"/><use transform="matrix(0.0864197530864197,0,0,0.0864197530864197,55.222222222222186,0)" xlink:href="#ak"/></g><path fill="#333" d="M30 0v-248h33v221h125V0H30" id="ay"/><g id="g"><use transform="matrix(0.0864197530864197,0,0,0.0864197530864197,0,0)" xlink:href="#aw"/><use transform="matrix(0.0864197530864197,0,0,0.0864197530864197,22.382716049382704,0)" xlink:href="#ag"/><use transform="matrix(0.0864197530864197,0,0,0.0864197530864197,48.22222222222219,0)" xlink:href="#ay"/></g><path fill="#333" d="M30-248c118-7 216 8 213 122C240-48 200 0 122 0H30v-248zM63-27c89 8 146-16 146-99s-60-101-146-95v194" id="az"/><g id="h"><use transform="matrix(0.0864197530864197,0,0,0.0864197530864197,0,0)" xlink:href="#az"/><use transform="matrix(0.0864197530864197,0,0,0.0864197530864197,22.382716049382704,0)" xlink:href="#ah"/><use transform="matrix(0.0864197530864197,0,0,0.0864197530864197,29.209876543209862,0)" xlink:href="#ap"/><use transform="matrix(0.0864197530864197,0,0,0.0864197530864197,46.493827160493815,0)" xlink:href="#as"/><use transform="matrix(0.0864197530864197,0,0,0.0864197530864197,63.77777777777775,0)" xlink:href="#al"/><use transform="matrix(0.0864197530864197,0,0,0.0864197530864197,74.06172839506169,0)" xlink:href="#ap"/><use transform="matrix(0.0864197530864197,0,0,0.0864197530864197,91.34567901234566,0)" xlink:href="#am"/></g><path fill="#333" d="M140-251c81 0 123 46 123 126C263-46 219 4 140 4 59 4 17-45 17-125s42-126 123-126zm0 227c63 0 89-41 89-101s-29-99-89-99c-61 0-89 39-89 99S79-25 140-24" id="aA"/><path fill="#333" d="M24 0v-261h32V0H24" id="aB"/><g id="i"><use transform="matrix(0.06172839506172839,0,0,0.06172839506172839,0,0)" xlink:href="#aA"/><use transform="matrix(0.06172839506172839,0,0,0.06172839506172839,17.28395061728395,0)" xlink:href="#aq"/><use transform="matrix(0.06172839506172839,0,0,0.06172839506172839,29.629629629629626,0)" xlink:href="#aB"/><use transform="matrix(0.06172839506172839,0,0,0.06172839506172839,34.50617283950617,0)" xlink:href="#ah"/><use transform="matrix(0.06172839506172839,0,0,0.06172839506172839,39.382716049382715,0)" xlink:href="#aq"/><use transform="matrix(0.06172839506172839,0,0,0.06172839506172839,51.72839506172839,0)" xlink:href="#ak"/></g><g id="j"><use transform="matrix(0.06172839506172839,0,0,0.06172839506172839,0,0)" xlink:href="#ao"/><use transform="matrix(0.06172839506172839,0,0,0.06172839506172839,14.814814814814813,0)" xlink:href="#ap"/><use transform="matrix(0.06172839506172839,0,0,0.06172839506172839,27.160493827160494,0)" xlink:href="#aq"/><use transform="matrix(0.06172839506172839,0,0,0.06172839506172839,39.50617283950617,0)" xlink:href="#ar"/><use transform="matrix(0.06172839506172839,0,0,0.06172839506172839,50.61728395061728,0)" xlink:href="#ah"/><use transform="matrix(0.06172839506172839,0,0,0.06172839506172839,55.49382716049382,0)" xlink:href="#aq"/><use transform="matrix(0.06172839506172839,0,0,0.06172839506172839,67.8395061728395,0)" xlink:href="#as"/></g><g id="k"><use transform="matrix(0.06172839506172839,0,0,0.06172839506172839,0,0)" xlink:href="#aw"/><use transform="matrix(0.06172839506172839,0,0,0.06172839506172839,15.987654320987653,0)" xlink:href="#av"/><use transform="matrix(0.06172839506172839,0,0,0.06172839506172839,27.098765432098766,0)" xlink:href="#ak"/><use transform="matrix(0.06172839506172839,0,0,0.06172839506172839,39.44444444444444,0)" xlink:href="#al"/></g><path fill="#333" d="M205 0l-28-72H64L36 0H1l101-248h38L239 0h-34zm-38-99l-47-123c-12 45-31 82-46 123h93" id="aC"/><g id="l"><use transform="matrix(0.06172839506172839,0,0,0.06172839506172839,0,0)" xlink:href="#aC"/><use transform="matrix(0.06172839506172839,0,0,0.06172839506172839,14.814814814814813,0)" xlink:href="#ai"/><use transform="matrix(0.06172839506172839,0,0,0.06172839506172839,27.160493827160494,0)" xlink:href="#am"/><use transform="matrix(0.06172839506172839,0,0,0.06172839506172839,45.61728395061728,0)" xlink:href="#ah"/><use transform="matrix(0.06172839506172839,0,0,0.06172839506172839,50.49382716049382,0)" xlink:href="#aq"/></g><path d="M127-220V0H93v-220H8v-28h204v28h-85" id="aD"/><path d="M114-163C36-179 61-72 57 0H25l-1-190h30c1 12-1 29 2 39 6-27 23-49 58-41v29" id="aE"/><path d="M141-36C126-15 110 5 73 4 37 3 15-17 15-53c-1-64 63-63 125-63 3-35-9-54-41-54-24 1-41 7-42 31l-33-3c5-37 33-52 76-52 45 0 72 20 72 64v82c-1 20 7 32 28 27v20c-31 9-61-2-59-35zM48-53c0 20 12 33 32 33 41-3 63-29 60-74-43 2-92-5-92 41" id="aF"/><path d="M117-194c89-4 53 116 60 194h-32v-121c0-31-8-49-39-48C34-167 62-67 57 0H25l-1-190h30c1 10-1 24 2 32 11-22 29-35 61-36" id="aG"/><path d="M135-143c-3-34-86-38-87 0 15 53 115 12 119 90S17 21 10-45l28-5c4 36 97 45 98 0-10-56-113-15-118-90-4-57 82-63 122-42 12 7 21 19 24 35" id="aH"/><path d="M101-234c-31-9-42 10-38 44h38v23H63V0H32v-167H5v-23h27c-7-52 17-82 69-68v24" id="aI"/><path d="M100-194c63 0 86 42 84 106H49c0 40 14 67 53 68 26 1 43-12 49-29l28 8c-11 28-37 45-77 45C44 4 14-33 15-96c1-61 26-98 85-98zm52 81c6-60-76-77-97-28-3 7-6 17-6 28h103" id="aJ"/><g id="m"><use transform="matrix(0.05,0,0,0.05,0,0)" xlink:href="#aD"/><use transform="matrix(0.05,0,0,0.05,10.3,0)" xlink:href="#aE"/><use transform="matrix(0.05,0,0,0.05,16.25,0)" xlink:href="#aF"/><use transform="matrix(0.05,0,0,0.05,26.25,0)" xlink:href="#aG"/><use transform="matrix(0.05,0,0,0.05,36.25,0)" xlink:href="#aH"/><use transform="matrix(0.05,0,0,0.05,45.25,0)" xlink:href="#aI"/><use transform="matrix(0.05,0,0,0.05,50.25,0)" xlink:href="#aJ"/><use transform="matrix(0.05,0,0,0.05,60.25,0)" xlink:href="#aE"/></g><path d="M240 0l2-218c-23 76-54 145-80 218h-23L58-218 59 0H30v-248h44l77 211c21-75 51-140 76-211h43V0h-30" id="aK"/><path d="M100-194c62-1 85 37 85 99 1 63-27 99-86 99S16-35 15-95c0-66 28-99 85-99zM99-20c44 1 53-31 53-75 0-43-8-75-51-75s-53 32-53 75 10 74 51 75" id="aL"/><path d="M179-190L93 31C79 59 56 82 12 73V49c39 6 53-20 64-50L1-190h34L92-34l54-156h33" id="aM"/><g id="n"><use transform="matrix(0.05,0,0,0.05,0,0)" xlink:href="#aK"/><use transform="matrix(0.05,0,0,0.05,14.950000000000001,0)" xlink:href="#aL"/><use transform="matrix(0.05,0,0,0.05,24.950000000000003,0)" xlink:href="#aG"/><use transform="matrix(0.05,0,0,0.05,34.95,0)" xlink:href="#aJ"/><use transform="matrix(0.05,0,0,0.05,44.95,0)" xlink:href="#aM"/></g><path d="M30 0v-248h187v28H63v79h144v27H63v87h162V0H30" id="aN"/><path d="M85-194c31 0 48 13 60 33l-1-100h32l1 261h-30c-2-10 0-23-3-31C134-8 116 4 85 4 32 4 16-35 15-94c0-66 23-100 70-100zm9 24c-40 0-46 34-46 75 0 40 6 74 45 74 42 0 51-32 51-76 0-42-9-74-50-73" id="aO"/><path d="M24-231v-30h32v30H24zM24 0v-190h32V0H24" id="aP"/><path d="M59-47c-2 24 18 29 38 22v24C64 9 27 4 27-40v-127H5v-23h24l9-43h21v43h35v23H59v120" id="aQ"/><g id="o"><use transform="matrix(0.05,0,0,0.05,0,0)" xlink:href="#aN"/><use transform="matrix(0.05,0,0,0.05,12,0)" xlink:href="#aO"/><use transform="matrix(0.05,0,0,0.05,22,0)" xlink:href="#aP"/><use transform="matrix(0.05,0,0,0.05,25.950000000000003,0)" xlink:href="#aQ"/></g><path d="M205 0l-28-72H64L36 0H1l101-248h38L239 0h-34zm-38-99l-47-123c-12 45-31 82-46 123h93" id="aR"/><path d="M96-169c-40 0-48 33-48 73s9 75 48 75c24 0 41-14 43-38l32 2c-6 37-31 61-74 61-59 0-76-41-82-99-10-93 101-131 147-64 4 7 5 14 7 22l-32 3c-4-21-16-35-41-35" id="aS"/><path d="M84 4C-5 8 30-112 23-190h32v120c0 31 7 50 39 49 72-2 45-101 50-169h31l1 190h-30c-1-10 1-25-2-33-11 22-28 36-60 37" id="aT"/><g id="p"><use transform="matrix(0.05,0,0,0.05,0,0)" xlink:href="#aR"/><use transform="matrix(0.05,0,0,0.05,12,0)" xlink:href="#aS"/><use transform="matrix(0.05,0,0,0.05,21,0)" xlink:href="#aS"/><use transform="matrix(0.05,0,0,0.05,30,0)" xlink:href="#aL"/><use transform="matrix(0.05,0,0,0.05,40,0)" xlink:href="#aT"/><use transform="matrix(0.05,0,0,0.05,50,0)" xlink:href="#aG"/><use transform="matrix(0.05,0,0,0.05,60,0)" xlink:href="#aQ"/></g><path d="M30 0v-248h33v221h125V0H30" id="aU"/><g id="q"><use transform="matrix(0.05,0,0,0.05,0,0)" xlink:href="#aU"/><use transform="matrix(0.05,0,0,0.05,10,0)" xlink:href="#aP"/><use transform="matrix(0.05,0,0,0.05,13.949999999999998,0)" xlink:href="#aH"/><use transform="matrix(0.05,0,0,0.05,22.95,0)" xlink:href="#aQ"/></g><g id="r"><use transform="matrix(0.05,0,0,0.05,0,0)" xlink:href="#aL"/><use transform="matrix(0.05,0,0,0.05,10,0)" xlink:href="#aI"/></g><g id="s"><use transform="matrix(0.05,0,0,0.05,0,0)" xlink:href="#aD"/><use transform="matrix(0.05,0,0,0.05,10.3,0)" xlink:href="#aE"/><use transform="matrix(0.05,0,0,0.05,16.25,0)" xlink:href="#aF"/><use transform="matrix(0.05,0,0,0.05,26.25,0)" xlink:href="#aG"/><use transform="matrix(0.05,0,0,0.05,36.25,0)" xlink:href="#aH"/><use transform="matrix(0.05,0,0,0.05,45.25,0)" xlink:href="#aF"/><use transform="matrix(0.05,0,0,0.05,55.25,0)" xlink:href="#aS"/><use transform="matrix(0.05,0,0,0.05,64.25,0)" xlink:href="#aQ"/><use transform="matrix(0.05,0,0,0.05,69.25,0)" xlink:href="#aP"/><use transform="matrix(0.05,0,0,0.05,73.2,0)" xlink:href="#aL"/><use transform="matrix(0.05,0,0,0.05,83.2,0)" xlink:href="#aG"/><use transform="matrix(0.05,0,0,0.05,93.2,0)" xlink:href="#aH"/></g><path d="M137 0h-34L2-248h35l83 218 83-218h36" id="aV"/><path d="M24 0v-261h32V0H24" id="aW"/><g id="t"><use transform="matrix(0.05,0,0,0.05,0,0)" xlink:href="#aV"/><use transform="matrix(0.05,0,0,0.05,10.65,0)" xlink:href="#aF"/><use transform="matrix(0.05,0,0,0.05,20.65,0)" xlink:href="#aW"/><use transform="matrix(0.05,0,0,0.05,24.599999999999998,0)" xlink:href="#aP"/><use transform="matrix(0.05,0,0,0.05,28.549999999999997,0)" xlink:href="#aO"/><use transform="matrix(0.05,0,0,0.05,38.55,0)" xlink:href="#aF"/><use transform="matrix(0.05,0,0,0.05,48.55,0)" xlink:href="#aQ"/><use transform="matrix(0.05,0,0,0.05,53.54999999999999,0)" xlink:href="#aJ"/></g><path d="M177-190C167-65 218 103 67 71c-23-6-38-20-44-43l32-5c15 47 100 32 89-28v-30C133-14 115 1 83 1 29 1 15-40 15-95c0-56 16-97 71-98 29-1 48 16 59 35 1-10 0-23 2-32h30zM94-22c36 0 50-32 50-73 0-42-14-75-50-75-39 0-46 34-46 75s6 73 46 73" id="aX"/><g id="u"><use transform="matrix(0.05,0,0,0.05,0,0)" xlink:href="#aU"/><use transform="matrix(0.05,0,0,0.05,10,0)" xlink:href="#aL"/><use transform="matrix(0.05,0,0,0.05,20,0)" xlink:href="#aX"/><use transform="matrix(0.05,0,0,0.05,30,0)" xlink:href="#aP"/><use transform="matrix(0.05,0,0,0.05,33.95,0)" xlink:href="#aG"/></g><g id="v"><use transform="matrix(0.05,0,0,0.05,0,0)" xlink:href="#aU"/><use transform="matrix(0.05,0,0,0.05,10,0)" xlink:href="#aL"/><use transform="matrix(0.05,0,0,0.05,20,0)" xlink:href="#aX"/></g><path d="M33 0v-248h34V0H33" id="aY"/><g id="w"><use transform="matrix(0.05,0,0,0.05,0,0)" xlink:href="#aY"/><use transform="matrix(0.05,0,0,0.05,5,0)" xlink:href="#aG"/></g><g id="x"><use transform="matrix(0.06172839506172839,0,0,0.06172839506172839,0,0)" xlink:href="#ao"/><use transform="matrix(0.06172839506172839,0,0,0.06172839506172839,14.814814814814813,0)" xlink:href="#ap"/><use transform="matrix(0.06172839506172839,0,0,0.06172839506172839,27.160493827160494,0)" xlink:href="#aq"/><use transform="matrix(0.06172839506172839,0,0,0.06172839506172839,39.50617283950617,0)" xlink:href="#ar"/></g><path d="M212-179c-10-28-35-45-73-45-59 0-87 40-87 99 0 60 29 101 89 101 43 0 62-24 78-52l27 14C228-24 195 4 139 4 59 4 22-46 18-125c-6-104 99-153 187-111 19 9 31 26 39 46" id="aZ"/><path d="M106-169C34-169 62-67 57 0H25v-261h32l-1 103c12-21 28-36 61-36 89 0 53 116 60 194h-32v-121c2-32-8-49-39-48" id="ba"/><path d="M143 0L79-87 56-68V0H24v-261h32v163l83-92h37l-77 82L181 0h-38" id="bb"/><g id="y"><use transform="matrix(0.05,0,0,0.05,0,0)" xlink:href="#aZ"/><use transform="matrix(0.05,0,0,0.05,12.950000000000001,0)" xlink:href="#ba"/><use transform="matrix(0.05,0,0,0.05,22.950000000000003,0)" xlink:href="#aJ"/><use transform="matrix(0.05,0,0,0.05,32.95,0)" xlink:href="#aS"/><use transform="matrix(0.05,0,0,0.05,41.95,0)" xlink:href="#bb"/></g><path d="M63-220v92h138v28H63V0H30v-248h175v28H63" id="bc"/><g id="z"><use transform="matrix(0.05,0,0,0.05,0,0)" xlink:href="#bc"/><use transform="matrix(0.05,0,0,0.05,10.950000000000001,0)" xlink:href="#aT"/><use transform="matrix(0.05,0,0,0.05,20.950000000000003,0)" xlink:href="#aG"/><use transform="matrix(0.05,0,0,0.05,30.950000000000003,0)" xlink:href="#aO"/><use transform="matrix(0.05,0,0,0.05,40.95,0)" xlink:href="#aH"/></g><path fill="#333" d="M15-91v-56l181-69v40L49-119l147 57v40" id="bd"/><path fill="#333" d="M25-224v-37h50v37H25zM25 0v-190h50V0H25" id="be"/><path fill="#333" d="M135-194c87-1 58 113 63 194h-50c-7-57 23-157-34-157-59 0-34 97-39 157H25l-1-190h47c2 12-1 28 3 38 12-26 28-41 61-42" id="bf"/><path fill="#333" d="M190-63c-7 42-38 67-86 67-59 0-84-38-90-98-12-110 154-137 174-36l-49 2c-2-19-15-32-35-32-30 0-35 28-38 64-6 74 65 87 74 30" id="bg"/><path fill="#333" d="M25 0v-261h50V0H25" id="bh"/><path fill="#333" d="M85 4C-2 5 27-109 22-190h50c7 57-23 150 33 157 60-5 35-97 40-157h50l1 190h-47c-2-12 1-28-3-38-12 25-28 42-61 42" id="bi"/><path fill="#333" d="M88-194c31-1 46 15 58 34l-1-101h50l1 261h-48c-2-10 0-23-3-31C134-8 116 4 84 4 32 4 16-41 15-95c0-56 19-97 73-99zm17 164c33 0 40-30 41-66 1-37-9-64-41-64s-38 30-39 65c0 43 13 65 39 65" id="bj"/><path fill="#333" d="M185-48c-13 30-37 53-82 52C43 2 14-33 14-96s30-98 90-98c62 0 83 45 84 108H66c0 31 8 55 39 56 18 0 30-7 34-22zm-45-69c5-46-57-63-70-21-2 6-4 13-4 21h74" id="bk"/><path fill="#333" d="M15-22v-40l146-57-146-57v-40l181 69v56" id="bl"/><g id="A"><use transform="matrix(0.04938271604938272,0,0,0.04938271604938272,0,0)" xlink:href="#bd"/><use transform="matrix(0.04938271604938272,0,0,0.04938271604938272,10.370370370370372,0)" xlink:href="#bd"/><use transform="matrix(0.04938271604938272,0,0,0.04938271604938272,20.740740740740744,0)" xlink:href="#be"/><use transform="matrix(0.04938271604938272,0,0,0.04938271604938272,25.679012345679016,0)" xlink:href="#bf"/><use transform="matrix(0.04938271604938272,0,0,0.04938271604938272,36.49382716049383,0)" xlink:href="#bg"/><use transform="matrix(0.04938271604938272,0,0,0.04938271604938272,46.370370370370374,0)" xlink:href="#bh"/><use transform="matrix(0.04938271604938272,0,0,0.04938271604938272,51.308641975308646,0)" xlink:href="#bi"/><use transform="matrix(0.04938271604938272,0,0,0.04938271604938272,62.12345679012346,0)" xlink:href="#bj"/><use transform="matrix(0.04938271604938272,0,0,0.04938271604938272,72.93827160493828,0)" xlink:href="#bk"/><use transform="matrix(0.04938271604938272,0,0,0.04938271604938272,82.81481481481482,0)" xlink:href="#bl"/><use transform="matrix(0.04938271604938272,0,0,0.04938271604938272,93.18518518518519,0)" xlink:href="#bl"/></g><g id="B"><use transform="matrix(0.05,0,0,0.05,0,0)" xlink:href="#aV"/><use transform="matrix(0.05,0,0,0.05,11,0)" xlink:href="#aJ"/><use transform="matrix(0.05,0,0,0.05,21,0)" xlink:href="#aE"/><use transform="matrix(0.05,0,0,0.05,26.950000000000003,0)" xlink:href="#aP"/><use transform="matrix(0.05,0,0,0.05,30.899999999999995,0)" xlink:href="#aI"/><use transform="matrix(0.05,0,0,0.05,35.9,0)" xlink:href="#aM"/></g><path d="M185-189c-5-48-123-54-124 2 14 75 158 14 163 119 3 78-121 87-175 55-17-10-28-26-33-46l33-7c5 56 141 63 141-1 0-78-155-14-162-118-5-82 145-84 179-34 5 7 8 16 11 25" id="bm"/><g id="C"><use transform="matrix(0.05,0,0,0.05,0,0)" xlink:href="#bm"/><use transform="matrix(0.05,0,0,0.05,12,0)" xlink:href="#aT"/><use transform="matrix(0.05,0,0,0.05,22,0)" xlink:href="#aI"/><use transform="matrix(0.05,0,0,0.05,26.649999999999995,0)" xlink:href="#aI"/><use transform="matrix(0.05,0,0,0.05,31.649999999999995,0)" xlink:href="#aP"/><use transform="matrix(0.05,0,0,0.05,35.6,0)" xlink:href="#aS"/><use transform="matrix(0.05,0,0,0.05,44.6,0)" xlink:href="#aP"/><use transform="matrix(0.05,0,0,0.05,48.550000000000004,0)" xlink:href="#aJ"/><use transform="matrix(0.05,0,0,0.05,58.550000000000004,0)" xlink:href="#aG"/><use transform="matrix(0.05,0,0,0.05,68.55000000000001,0)" xlink:href="#aQ"/></g><path d="M232-93c-1 65-40 97-104 97C67 4 28-28 28-90v-158h33c8 89-33 224 67 224 102 0 64-133 71-224h33v155" id="bn"/><g id="D"><use transform="matrix(0.05,0,0,0.05,0,0)" xlink:href="#bn"/><use transform="matrix(0.05,0,0,0.05,12.950000000000001,0)" xlink:href="#aH"/><use transform="matrix(0.05,0,0,0.05,21.950000000000003,0)" xlink:href="#aJ"/><use transform="matrix(0.05,0,0,0.05,31.950000000000003,0)" xlink:href="#aE"/></g><g id="E"><use transform="matrix(0.05,0,0,0.05,0,0)" xlink:href="#aZ"/><use transform="matrix(0.05,0,0,0.05,12.950000000000001,0)" xlink:href="#aE"/><use transform="matrix(0.05,0,0,0.05,18.900000000000002,0)" xlink:href="#aJ"/><use transform="matrix(0.05,0,0,0.05,28.900000000000002,0)" xlink:href="#aF"/><use transform="matrix(0.05,0,0,0.05,38.900000000000006,0)" xlink:href="#aQ"/><use transform="matrix(0.05,0,0,0.05,43.900000000000006,0)" xlink:href="#aJ"/></g><g id="F"><use transform="matrix(0.05,0,0,0.05,0,0)" xlink:href="#aZ"/><use transform="matrix(0.05,0,0,0.05,12.950000000000001,0)" xlink:href="#ba"/><use transform="matrix(0.05,0,0,0.05,22.950000000000003,0)" xlink:href="#aJ"/><use transform="matrix(0.05,0,0,0.05,32.95,0)" xlink:href="#aS"/><use transform="matrix(0.05,0,0,0.05,41.95,0)" xlink:href="#bb"/><use transform="matrix(0.05,0,0,0.05,50.95,0)" xlink:href="#aP"/><use transform="matrix(0.05,0,0,0.05,54.900000000000006,0)" xlink:href="#aG"/><use transform="matrix(0.05,0,0,0.05,64.9,0)" xlink:href="#aX"/></g><g id="G"><use transform="matrix(0.05,0,0,0.05,0,0)" xlink:href="#aZ"/><use transform="matrix(0.05,0,0,0.05,12.950000000000001,0)" xlink:href="#ba"/><use transform="matrix(0.05,0,0,0.05,22.950000000000003,0)" xlink:href="#aF"/><use transform="matrix(0.05,0,0,0.05,32.95,0)" xlink:href="#aG"/><use transform="matrix(0.05,0,0,0.05,42.95,0)" xlink:href="#aX"/><use transform="matrix(0.05,0,0,0.05,52.95,0)" xlink:href="#aJ"/></g><path d="M115-194c55 1 70 41 70 98S169 2 115 4C84 4 66-9 55-30l1 105H24l-1-265h31l2 30c10-21 28-34 59-34zm-8 174c40 0 45-34 45-75s-6-73-45-74c-42 0-51 32-51 76 0 43 10 73 51 73" id="bo"/><path d="M206 0h-36l-40-164L89 0H53L-1-190h32L70-26l43-164h34l41 164 42-164h31" id="bp"/><g id="H"><use transform="matrix(0.05,0,0,0.05,0,0)" xlink:href="#bo"/><use transform="matrix(0.05,0,0,0.05,10,0)" xlink:href="#aF"/><use transform="matrix(0.05,0,0,0.05,20,0)" xlink:href="#aH"/><use transform="matrix(0.05,0,0,0.05,29,0)" xlink:href="#aH"/><use transform="matrix(0.05,0,0,0.05,38,0)" xlink:href="#bp"/><use transform="matrix(0.05,0,0,0.05,50.95,0)" xlink:href="#aL"/><use transform="matrix(0.05,0,0,0.05,60.95,0)" xlink:href="#aE"/><use transform="matrix(0.05,0,0,0.05,66.9,0)" xlink:href="#aO"/></g><g id="I"><use transform="matrix(0.05,0,0,0.05,0,0)" xlink:href="#aS"/><use transform="matrix(0.05,0,0,0.05,9,0)" xlink:href="#ba"/><use transform="matrix(0.05,0,0,0.05,19,0)" xlink:href="#aF"/><use transform="matrix(0.05,0,0,0.05,29,0)" xlink:href="#aG"/><use transform="matrix(0.05,0,0,0.05,39,0)" xlink:href="#aX"/><use transform="matrix(0.05,0,0,0.05,49,0)" xlink:href="#aJ"/></g><g id="J"><use transform="matrix(0.05,0,0,0.05,0,0)" xlink:href="#bn"/><use transform="matrix(0.05,0,0,0.05,12.950000000000001,0)" xlink:href="#aH"/><use transform="matrix(0.05,0,0,0.05,21.950000000000003,0)" xlink:href="#aJ"/><use transform="matrix(0.05,0,0,0.05,31.950000000000003,0)" xlink:href="#aE"/></g><g id="K"><use transform="matrix(0.05,0,0,0.05,0,0)" xlink:href="#aO"/><use transform="matrix(0.05,0,0,0.05,10,0)" xlink:href="#aJ"/><use transform="matrix(0.05,0,0,0.05,20,0)" xlink:href="#aQ"/><use transform="matrix(0.05,0,0,0.05,25,0)" xlink:href="#aF"/><use transform="matrix(0.05,0,0,0.05,35,0)" xlink:href="#aP"/><use transform="matrix(0.05,0,0,0.05,38.95,0)" xlink:href="#aW"/><use transform="matrix(0.05,0,0,0.05,42.900000000000006,0)" xlink:href="#aH"/></g><path d="M108 0H70L1-190h34L89-25l56-165h34" id="bq"/><g id="L"><use transform="matrix(0.05,0,0,0.05,0,0)" xlink:href="#bm"/><use transform="matrix(0.05,0,0,0.05,12,0)" xlink:href="#aF"/><use transform="matrix(0.05,0,0,0.05,22,0)" xlink:href="#bq"/><use transform="matrix(0.05,0,0,0.05,31,0)" xlink:href="#aP"/><use transform="matrix(0.05,0,0,0.05,34.95,0)" xlink:href="#aG"/><use transform="matrix(0.05,0,0,0.05,44.95,0)" xlink:href="#aX"/><use transform="matrix(0.05,0,0,0.05,54.95,0)" xlink:href="#aH"/></g><g id="M"><use transform="matrix(0.05,0,0,0.05,0,0)" xlink:href="#aZ"/><use transform="matrix(0.05,0,0,0.05,12.950000000000001,0)" xlink:href="#aE"/><use transform="matrix(0.05,0,0,0.05,18.900000000000002,0)" xlink:href="#aJ"/><use transform="matrix(0.05,0,0,0.05,28.900000000000002,0)" xlink:href="#aO"/><use transform="matrix(0.05,0,0,0.05,38.900000000000006,0)" xlink:href="#aP"/><use transform="matrix(0.05,0,0,0.05,42.85000000000001,0)" xlink:href="#aQ"/></g><g id="N"><use transform="matrix(0.05,0,0,0.05,0,0)" xlink:href="#aZ"/><use transform="matrix(0.05,0,0,0.05,12.950000000000001,0)" xlink:href="#aF"/><use transform="matrix(0.05,0,0,0.05,22.950000000000003,0)" xlink:href="#aE"/><use transform="matrix(0.05,0,0,0.05,28.900000000000002,0)" xlink:href="#aO"/></g><g id="O"><use transform="matrix(0.05,0,0,0.05,0,0)" xlink:href="#bm"/><use transform="matrix(0.05,0,0,0.05,12,0)" xlink:href="#aQ"/><use transform="matrix(0.05,0,0,0.05,17,0)" xlink:href="#aT"/><use transform="matrix(0.05,0,0,0.05,27,0)" xlink:href="#aO"/><use transform="matrix(0.05,0,0,0.05,37,0)" xlink:href="#aJ"/><use transform="matrix(0.05,0,0,0.05,47,0)" xlink:href="#aG"/><use transform="matrix(0.05,0,0,0.05,57,0)" xlink:href="#aQ"/></g><g id="P"><use transform="matrix(0.05,0,0,0.05,0,0)" xlink:href="#aZ"/><use transform="matrix(0.05,0,0,0.05,12.950000000000001,0)" xlink:href="#ba"/><use transform="matrix(0.05,0,0,0.05,22.950000000000003,0)" xlink:href="#aJ"/><use transform="matrix(0.05,0,0,0.05,32.95,0)" xlink:href="#aS"/><use transform="matrix(0.05,0,0,0.05,41.95,0)" xlink:href="#bb"/><use transform="matrix(0.05,0,0,0.05,50.95,0)" xlink:href="#aP"/><use transform="matrix(0.05,0,0,0.05,54.900000000000006,0)" xlink:href="#aG"/><use transform="matrix(0.05,0,0,0.05,64.9,0)" xlink:href="#aX"/></g><g id="Q"><use transform="matrix(0.05,0,0,0.05,0,0)" xlink:href="#aF"/><use transform="matrix(0.05,0,0,0.05,10,0)" xlink:href="#aX"/><use transform="matrix(0.05,0,0,0.05,20,0)" xlink:href="#aJ"/></g><path fill="#333" d="M144 0l-44-69L55 0H2l70-98-66-92h53l41 62 40-62h54l-67 91 71 99h-54" id="br"/><path fill="#333" d="M115-3C79 11 28 4 28-45v-112H4v-33h27l15-45h31v45h36v33H77v99c-1 23 16 31 38 25v30" id="bs"/><path fill="#333" d="M137-138c1-29-70-34-71-4 15 46 118 7 119 86 1 83-164 76-172 9l43-7c4 19 20 25 44 25 33 8 57-30 24-41C81-84 22-81 20-136c-2-80 154-74 161-7" id="bt"/><g id="R"><use transform="matrix(0.04938271604938272,0,0,0.04938271604938272,0,0)" xlink:href="#bd"/><use transform="matrix(0.04938271604938272,0,0,0.04938271604938272,10.370370370370372,0)" xlink:href="#bd"/><use transform="matrix(0.04938271604938272,0,0,0.04938271604938272,20.740740740740744,0)" xlink:href="#bk"/><use transform="matrix(0.04938271604938272,0,0,0.04938271604938272,30.617283950617285,0)" xlink:href="#br"/><use transform="matrix(0.04938271604938272,0,0,0.04938271604938272,40.49382716049384,0)" xlink:href="#bs"/><use transform="matrix(0.04938271604938272,0,0,0.04938271604938272,46.37037037037038,0)" xlink:href="#bk"/><use transform="matrix(0.04938271604938272,0,0,0.04938271604938272,56.24691358024693,0)" xlink:href="#bf"/><use transform="matrix(0.04938271604938272,0,0,0.04938271604938272,67.06172839506173,0)" xlink:href="#bj"/><use transform="matrix(0.04938271604938272,0,0,0.04938271604938272,77.87654320987654,0)" xlink:href="#bt"/><use transform="matrix(0.04938271604938272,0,0,0.04938271604938272,87.75308641975309,0)" xlink:href="#bl"/><use transform="matrix(0.04938271604938272,0,0,0.04938271604938272,98.12345679012346,0)" xlink:href="#bl"/></g><g id="S"><use transform="matrix(0.05,0,0,0.05,0,0)" xlink:href="#bn"/><use transform="matrix(0.05,0,0,0.05,12.950000000000001,0)" xlink:href="#bo"/><use transform="matrix(0.05,0,0,0.05,22.950000000000003,0)" xlink:href="#aO"/><use transform="matrix(0.05,0,0,0.05,32.95,0)" xlink:href="#aF"/><use transform="matrix(0.05,0,0,0.05,42.95,0)" xlink:href="#aQ"/><use transform="matrix(0.05,0,0,0.05,47.95,0)" xlink:href="#aJ"/></g><path d="M115-194c53 0 69 39 70 98 0 66-23 100-70 100C84 3 66-7 56-30L54 0H23l1-261h32v101c10-23 28-34 59-34zm-8 174c40 0 45-34 45-75 0-40-5-75-45-74-42 0-51 32-51 76 0 43 10 73 51 73" id="bu"/><g id="T"><use transform="matrix(0.05,0,0,0.05,0,0)" xlink:href="#bu"/><use transform="matrix(0.05,0,0,0.05,10,0)" xlink:href="#aF"/><use transform="matrix(0.05,0,0,0.05,20,0)" xlink:href="#aW"/><use transform="matrix(0.05,0,0,0.05,23.95,0)" xlink:href="#aF"/><use transform="matrix(0.05,0,0,0.05,33.95,0)" xlink:href="#aG"/><use transform="matrix(0.05,0,0,0.05,43.95,0)" xlink:href="#aS"/><use transform="matrix(0.05,0,0,0.05,52.95,0)" xlink:href="#aJ"/></g><g id="U"><use transform="matrix(0.05,0,0,0.05,0,0)" xlink:href="#aS"/><use transform="matrix(0.05,0,0,0.05,9,0)" xlink:href="#ba"/><use transform="matrix(0.05,0,0,0.05,19,0)" xlink:href="#aJ"/><use transform="matrix(0.05,0,0,0.05,29,0)" xlink:href="#aS"/><use transform="matrix(0.05,0,0,0.05,38,0)" xlink:href="#bb"/></g><g id="V"><use transform="matrix(0.05,0,0,0.05,0,0)" xlink:href="#aP"/><use transform="matrix(0.05,0,0,0.05,3.95,0)" xlink:href="#aG"/><use transform="matrix(0.05,0,0,0.05,13.949999999999998,0)" xlink:href="#aQ"/><use transform="matrix(0.05,0,0,0.05,18.95,0)" xlink:href="#aJ"/><use transform="matrix(0.05,0,0,0.05,28.950000000000003,0)" xlink:href="#aE"/><use transform="matrix(0.05,0,0,0.05,34.9,0)" xlink:href="#aJ"/><use transform="matrix(0.05,0,0,0.05,44.9,0)" xlink:href="#aH"/><use transform="matrix(0.05,0,0,0.05,53.900000000000006,0)" xlink:href="#aQ"/></g><path d="M68-38c1 34 0 65-14 84H32c9-13 17-26 17-46H33v-38h35" id="bv"/><g id="W"><use transform="matrix(0.05,0,0,0.05,0,0)" xlink:href="#aO"/><use transform="matrix(0.05,0,0,0.05,10,0)" xlink:href="#aF"/><use transform="matrix(0.05,0,0,0.05,20,0)" xlink:href="#aQ"/><use transform="matrix(0.05,0,0,0.05,25,0)" xlink:href="#aJ"/><use transform="matrix(0.05,0,0,0.05,35,0)" xlink:href="#bv"/></g><path d="M210-169c-67 3-38 105-44 169h-31v-121c0-29-5-50-35-48C34-165 62-65 56 0H25l-1-190h30c1 10-1 24 2 32 10-44 99-50 107 0 11-21 27-35 58-36 85-2 47 119 55 194h-31v-121c0-29-5-49-35-48" id="bw"/><g id="X"><use transform="matrix(0.05,0,0,0.05,0,0)" xlink:href="#bw"/><use transform="matrix(0.05,0,0,0.05,14.950000000000001,0)" xlink:href="#aF"/><use transform="matrix(0.05,0,0,0.05,24.950000000000003,0)" xlink:href="#aP"/><use transform="matrix(0.05,0,0,0.05,28.900000000000002,0)" xlink:href="#aG"/><use transform="matrix(0.05,0,0,0.05,38.900000000000006,0)" xlink:href="#aQ"/><use transform="matrix(0.05,0,0,0.05,43.900000000000006,0)" xlink:href="#aJ"/><use transform="matrix(0.05,0,0,0.05,53.900000000000006,0)" xlink:href="#aG"/><use transform="matrix(0.05,0,0,0.05,63.900000000000006,0)" xlink:href="#aF"/><use transform="matrix(0.05,0,0,0.05,73.9,0)" xlink:href="#aG"/><use transform="matrix(0.05,0,0,0.05,83.9,0)" xlink:href="#aS"/><use transform="matrix(0.05,0,0,0.05,92.9,0)" xlink:href="#aJ"/></g><g id="Y"><use transform="matrix(0.05,0,0,0.05,0,0)" xlink:href="#aF"/><use transform="matrix(0.05,0,0,0.05,10,0)" xlink:href="#bw"/><use transform="matrix(0.05,0,0,0.05,24.950000000000003,0)" xlink:href="#aL"/><use transform="matrix(0.05,0,0,0.05,34.95,0)" xlink:href="#aT"/><use transform="matrix(0.05,0,0,0.05,44.95,0)" xlink:href="#aG"/><use transform="matrix(0.05,0,0,0.05,54.95,0)" xlink:href="#aQ"/></g><g id="Z"><use transform="matrix(0.05,0,0,0.05,0,0)" xlink:href="#aR"/><use transform="matrix(0.05,0,0,0.05,12,0)" xlink:href="#aS"/><use transform="matrix(0.05,0,0,0.05,21,0)" xlink:href="#aS"/><use transform="matrix(0.05,0,0,0.05,30,0)" xlink:href="#aL"/><use transform="matrix(0.05,0,0,0.05,40,0)" xlink:href="#aT"/><use transform="matrix(0.05,0,0,0.05,50,0)" xlink:href="#aG"/><use transform="matrix(0.05,0,0,0.05,60,0)" xlink:href="#aQ"/></g><g id="aa"><use transform="matrix(0.05,0,0,0.05,0,0)" xlink:href="#bm"/><use transform="matrix(0.05,0,0,0.05,12,0)" xlink:href="#aQ"/><use transform="matrix(0.05,0,0,0.05,17,0)" xlink:href="#aF"/><use transform="matrix(0.05,0,0,0.05,27,0)" xlink:href="#aQ"/><use transform="matrix(0.05,0,0,0.05,32,0)" xlink:href="#aT"/><use transform="matrix(0.05,0,0,0.05,42,0)" xlink:href="#aH"/></g><g id="ab"><use transform="matrix(0.04938271604938272,0,0,0.04938271604938272,0,0)" xlink:href="#bl"/><use transform="matrix(0.04938271604938272,0,0,0.04938271604938272,10.370370370370372,0)" xlink:href="#bl"/><use transform="matrix(0.04938271604938272,0,0,0.04938271604938272,20.740740740740744,0)" xlink:href="#be"/><use transform="matrix(0.04938271604938272,0,0,0.04938271604938272,25.679012345679016,0)" xlink:href="#bf"/><use transform="matrix(0.04938271604938272,0,0,0.04938271604938272,36.49382716049383,0)" xlink:href="#bg"/><use transform="matrix(0.04938271604938272,0,0,0.04938271604938272,46.370370370370374,0)" xlink:href="#bh"/><use transform="matrix(0.04938271604938272,0,0,0.04938271604938272,51.308641975308646,0)" xlink:href="#bi"/><use transform="matrix(0.04938271604938272,0,0,0.04938271604938272,62.12345679012346,0)" xlink:href="#bj"/><use transform="matrix(0.04938271604938272,0,0,0.04938271604938272,72.93827160493828,0)" xlink:href="#bk"/><use transform="matrix(0.04938271604938272,0,0,0.04938271604938272,82.81481481481482,0)" xlink:href="#bl"/><use transform="matrix(0.04938271604938272,0,0,0.04938271604938272,93.18518518518519,0)" xlink:href="#bl"/></g><path d="M9 0v-24l116-142H16v-24h144v24L44-24h123V0H9" id="bx"/><g id="ac"><use transform="matrix(0.05,0,0,0.05,0,0)" xlink:href="#aI"/><use transform="matrix(0.05,0,0,0.05,5,0)" xlink:href="#aE"/><use transform="matrix(0.05,0,0,0.05,10.95,0)" xlink:href="#aJ"/><use transform="matrix(0.05,0,0,0.05,20.95,0)" xlink:href="#aJ"/><use transform="matrix(0.05,0,0,0.05,30.950000000000003,0)" xlink:href="#bx"/><use transform="matrix(0.05,0,0,0.05,39.95,0)" xlink:href="#aJ"/></g><g id="ad"><use transform="matrix(0.05,0,0,0.05,0,0)" xlink:href="#aF"/><use transform="matrix(0.05,0,0,0.05,10,0)" xlink:href="#aS"/><use transform="matrix(0.05,0,0,0.05,19,0)" xlink:href="#aS"/><use transform="matrix(0.05,0,0,0.05,28,0)" xlink:href="#aL"/><use transform="matrix(0.05,0,0,0.05,38,0)" xlink:href="#aT"/><use transform="matrix(0.05,0,0,0.05,48,0)" xlink:href="#aG"/><use transform="matrix(0.05,0,0,0.05,58,0)" xlink:href="#aQ"/></g><g id="ae"><use transform="matrix(0.05,0,0,0.05,0,0)" xlink:href="#bc"/><use transform="matrix(0.05,0,0,0.05,10.950000000000001,0)" xlink:href="#aE"/><use transform="matrix(0.05,0,0,0.05,16.900000000000002,0)" xlink:href="#aF"/><use transform="matrix(0.05,0,0,0.05,26.900000000000002,0)" xlink:href="#aT"/><use transform="matrix(0.05,0,0,0.05,36.900000000000006,0)" xlink:href="#aO"/></g><path d="M30-248c118-7 216 8 213 122C240-48 200 0 122 0H30v-248zM63-27c89 8 146-16 146-99s-60-101-146-95v194" id="by"/><g id="af"><use transform="matrix(0.05,0,0,0.05,0,0)" xlink:href="#by"/><use transform="matrix(0.05,0,0,0.05,12.950000000000001,0)" xlink:href="#aJ"/><use transform="matrix(0.05,0,0,0.05,22.950000000000003,0)" xlink:href="#aQ"/><use transform="matrix(0.05,0,0,0.05,27.950000000000003,0)" xlink:href="#aJ"/><use transform="matrix(0.05,0,0,0.05,37.95,0)" xlink:href="#aS"/><use transform="matrix(0.05,0,0,0.05,46.95,0)" xlink:href="#aQ"/><use transform="matrix(0.05,0,0,0.05,51.95,0)" xlink:href="#aP"/><use transform="matrix(0.05,0,0,0.05,55.900000000000006,0)" xlink:href="#aL"/><use transform="matrix(0.05,0,0,0.05,65.9,0)" xlink:href="#aG"/></g></defs></g></svg>